<svg version="1.0" xmlns="http://www.w3.org/2000/svg"
 width="240.000000pt" height="210.000000pt" viewBox="0 0 240.000000 210.000000"
 preserveAspectRatio="xMidYMid meet">

<g transform="translate(0.000000,210.000000) scale(0.100000,-0.100000)"
fill="#000000" stroke="none">
<path d="M1150 1683 c-77 -41 -123 -104 -159 -223 -27 -90 -77 -256 -141 -470
-166 -556 -173 -573 -270 -649 -55 -44 -156 -81 -219 -81 -21 0 -60 6 -87 14
l-49 15 74 -70 c170 -161 406 -218 606 -145 128 46 222 130 282 251 46 92 67
158 212 645 38 129 82 273 96 320 34 108 37 197 8 260 -46 103 -115 150 -228
158 -63 3 -76 1 -125 -25z"/>
<path d="M360 1441 c-83 -27 -151 -93 -173 -168 -8 -26 -49 -161 -91 -300 -42
-138 -76 -263 -76 -276 0 -13 7 -47 16 -76 44 -150 241 -228 384 -153 91 47
102 67 202 393 77 254 89 301 85 346 -13 135 -118 231 -261 239 -34 2 -72 0
-86 -5z"/>
</g>
</svg>
